<?xml version="1.0" encoding="UTF-8"?>
<svg version="1.1" xmlns="http://www.w3.org/2000/svg" width="640" height="640">
<path d="M0 0 C211.2 0 422.4 0 640 0 C640 211.2 640 422.4 640 640 C428.8 640 217.6 640 0 640 C0 428.8 0 217.6 0 0 Z " fill="#0040E7" transform="translate(0,0)"/>
<path d="M0 0 C101.97 0 203.94 0 309 0 C309 10.56 309 21.12 309 32 C264.78 32 220.56 32 175 32 C175.33 32.99 175.66 33.98 176 35 C177.50452491 51.67737292 175.90809727 65.97963287 165.30078125 79.5234375 C157.12144692 88.32767853 148.16882539 92.91153703 136.21484375 93.51171875 C133.78943239 93.58402099 131.36356885 93.64235784 128.9375 93.6875 C127.69033203 93.72166016 126.44316406 93.75582031 125.15820312 93.79101562 C122.10555873 93.87288731 119.05317966 93.94223628 116 94 C122.76917958 100.79244046 129.54112417 107.58210894 136.31652832 114.36834049 C139.46317471 117.5201858 142.6088923 120.67294617 145.75244141 123.82788086 C148.79117855 126.87755386 151.83241504 129.92471437 154.87533569 132.97021294 C156.03070798 134.12742031 157.18520593 135.28550138 158.33877563 136.44450569 C163.83717493 141.96775523 169.33537952 147.42913883 175.26513672 152.49543762 C178.04436736 154.90572891 180.6467845 157.48454594 183.25 160.08203125 C183.79358154 160.62228439 184.33716309 161.16253754 184.8972168 161.71916199 C186.02765891 162.84460043 187.15680616 163.97134095 188.28466797 165.09936523 C190.01903314 166.83150876 191.76129591 168.5554531 193.50390625 170.27929688 C194.60725787 171.37972022 195.71014039 172.48061416 196.8125 173.58203125 C197.33424805 174.09659378 197.85599609 174.61115631 198.39355469 175.14131165 C202 178.77113122 202 178.77113122 202 181 C175.12781874 183.25738077 175.12781874 183.25738077 168.4609375 178.3515625 C165.74445759 175.78890962 163.57060228 172.92619217 161.45470142 169.8594408 C159.89895776 167.87084493 158.25090764 166.37872608 156.31925964 164.75553894 C152.11601897 161.1417571 148.18934447 157.31733674 144.28637695 153.3840332 C143.56172241 152.6579184 142.83706787 151.93180359 142.0904541 151.1836853 C140.53161011 149.621062 138.97392142 148.05728547 137.41729164 146.49245644 C134.9519168 144.0142272 132.48335202 141.53921498 130.01396179 139.06498718 C124.77732015 133.81696694 119.54462876 128.56501897 114.3125 123.3125 C108.2363343 117.21270677 102.15854587 111.11454898 96.07652855 105.02058983 C93.6477001 102.58529178 91.22190858 100.14699622 88.79621887 97.70857239 C87.30610732 96.21482809 85.81585506 94.72122413 84.32543945 93.2277832 C83.6546788 92.55185623 82.98391815 91.87592926 82.29283142 91.17951965 C79.00339736 87.88971538 75.68705836 84.85068353 72 82 C70.31183067 80.35511706 68.64646685 78.68662458 67 77 C66.45601563 76.47792969 65.91203125 75.95585937 65.3515625 75.41796875 C63.86397682 73.98276285 62.42804281 72.4944634 61 71 C61 70.34 61 69.68 61 69 C62.06876373 68.99453156 62.06876373 68.99453156 63.15911865 68.98895264 C69.92505318 68.95084114 76.69059964 68.89373019 83.4561882 68.81609726 C86.93321166 68.77684765 90.4099904 68.74455064 93.88720703 68.72900391 C97.89916164 68.71074422 101.910206 68.66069686 105.921875 68.609375 C107.15049255 68.60814636 108.37911011 68.60691772 109.6449585 68.60565186 C119.80476039 68.43592018 129.96057134 66.66684328 138 60 C143.49144583 54.31350281 144.41860136 49.76274119 144.34375 42.015625 C143.83637502 37.56456268 142.228104 35.02422375 139 32 C132.31227351 26.76612709 124.88364322 23.81486744 116.3861084 23.92926025 C115.48929352 23.93825851 114.59247864 23.94725677 113.66848755 23.95652771 C112.69700775 23.97119583 111.72552795 23.98586395 110.72460938 24.00097656 C108.58329814 24.02373649 106.44198102 24.04594792 104.30065918 24.06768799 C103.16772934 24.08047035 102.0347995 24.09325272 100.86753845 24.10642242 C93.5847706 24.17711038 86.30160251 24.1832146 79.01854706 24.20027542 C72.62777741 24.21890917 66.23879448 24.26076429 59.84863281 24.35302734 C53.65652366 24.44115426 47.46704235 24.46515761 41.27436829 24.44664764 C38.9236967 24.45092992 36.57294436 24.47803317 34.2228241 24.5291214 C13.9567168 24.94816921 13.9567168 24.94816921 6.677742 18.73600388 C3.77202953 15.86544286 1.9319726 13.68761106 0 10 C0 6.7 0 3.4 0 0 Z " fill="#FAFCFE" transform="translate(141,248)"/>
<path d="M0 0 C46.86 0 93.72 0 142 0 C142 8.91 142 17.82 142 27 C95.14 27 48.28 27 0 27 C0 18.09 0 9.18 0 0 Z " fill="#FBFCFE" transform="translate(358,402)"/>
<path d="M0 0 C8.25 0 16.5 0 25 0 C24.39201028 4.86391773 23.83845787 9.14905347 22.6965332 13.81982422 C22.43568436 14.8965036 22.17483551 15.97318298 21.90608215 17.08248901 C21.62383286 18.22831451 21.34158356 19.37414001 21.05078125 20.5546875 C20.75568161 21.76907501 20.46058197 22.98346252 20.15653992 24.23464966 C19.37120823 27.46401455 18.58224695 30.6924441 17.79119873 33.92041016 C16.3927599 39.63041975 15.00311588 45.34257885 13.61328125 51.0546875 C13.30992859 52.3003952 13.00657593 53.54610291 12.69403076 54.82955933 C9.91463893 66.27838759 7.26000306 77.75437203 4.63430786 89.23925781 C3.11929714 95.83314428 1.55627551 102.41575744 0 109 C-8.58 109 -17.16 109 -26 109 C-24.81524989 102.4838744 -23.63992417 96.11373841 -22.046875 89.7109375 C-21.86625519 88.97319595 -21.68563538 88.23545441 -21.49954224 87.47535706 C-20.91930851 85.10783643 -20.3346706 82.74142838 -19.75 80.375 C-19.13754742 77.88073201 -18.52620742 75.38619289 -17.91488647 72.89164734 C-17.50937046 71.23734683 -17.10346877 69.58314081 -16.69717407 67.92903137 C-15.06258275 61.27161304 -13.46286731 54.6062128 -11.875 47.9375 C-8.93595129 35.6286899 -5.86253739 23.3539241 -2.77441406 11.08178711 C-1.84638003 7.38866807 -0.9235601 3.69424041 0 0 Z " fill="#F8FBFE" transform="translate(418,286)"/>
<path d="M0 0 C8.25 0 16.5 0 25 0 C23.80306873 6.58312199 22.60337927 13.05429771 21.046875 19.54296875 C20.86620987 20.30577652 20.68554474 21.06858429 20.49940491 21.85450745 C19.91928025 24.29956567 19.33480767 26.74355804 18.75 29.1875 C18.34324042 30.89678546 17.93658446 32.60609559 17.5300293 34.31542969 C15.12492444 44.40611195 12.65404195 54.47820486 10.10742188 64.53417969 C6.99805329 76.87149228 4.07809026 89.27250847 1.41992188 101.71533203 C0.09727709 107.90272291 0.09727709 107.90272291 -1 109 C-2.85369611 109.08737645 -4.71067541 109.10698153 -6.56640625 109.09765625 C-7.69111328 109.09443359 -8.81582031 109.09121094 -9.97460938 109.08789062 C-11.15861328 109.07951172 -12.34261719 109.07113281 -13.5625 109.0625 C-14.75037109 109.05798828 -15.93824219 109.05347656 -17.16210938 109.04882812 C-20.10812226 109.03699675 -23.05403681 109.02051287 -26 109 C-25.34969843 103.89488319 -24.35248571 98.95635348 -23.109375 93.9609375 C-22.92288391 93.19939362 -22.73639282 92.43784973 -22.54425049 91.65322876 C-21.94932199 89.22636448 -21.34986542 86.80064819 -20.75 84.375 C-19.97274001 81.21644475 -19.19723521 78.05745958 -18.421875 74.8984375 C-18.12594452 73.6941787 -18.12594452 73.6941787 -17.82403564 72.46559143 C-14.81636381 60.20517457 -11.92521364 47.91678003 -9.02130127 35.63146973 C-8.15030796 31.94783862 -7.27793812 28.2645343 -6.40527344 24.58129883 C-5.96042103 22.70161509 -5.51644029 20.82172488 -5.07324219 18.94165039 C-4.42091478 16.17539512 -3.76546508 13.40989616 -3.109375 10.64453125 C-2.91148376 9.80203323 -2.71359253 8.95953522 -2.50970459 8.09150696 C-1.11386951 2.22773902 -1.11386951 2.22773902 0 0 Z " fill="#F8FBFE" transform="translate(386,286)"/>
<path d="M0 0 C1.58041407 0.00138269 1.58041407 0.00138269 3.1927557 0.00279331 C4.39735439 0.00141865 5.60195309 0.00004398 6.84305477 -0.00137234 C8.19008566 0.00216726 9.53711629 0.00580208 10.88414669 0.00952244 C12.29314325 0.00980431 13.70213996 0.00964658 15.11113644 0.00907993 C18.94774448 0.00879194 22.78432152 0.01468889 26.62092233 0.02165389 C30.62613758 0.0278872 34.63135348 0.02849121 38.63657284 0.0296793 C46.22618821 0.03279268 53.81578926 0.04100616 61.40539831 0.05102879 C70.04370741 0.06218971 78.68201718 0.06770032 87.32033169 0.07272422 C105.09478532 0.08318877 122.8692256 0.10078835 140.64366817 0.12304783 C140.64366817 0.45304783 140.64366817 0.78304783 140.64366817 1.12304783 C93.78366817 1.12304783 46.92366817 1.12304783 -1.35633183 1.12304783 C-1.35633183 10.03304783 -1.35633183 18.94304783 -1.35633183 28.12304783 C45.50366817 28.12304783 92.36366817 28.12304783 140.64366817 28.12304783 C140.64366817 28.78304783 140.64366817 29.44304783 140.64366817 30.12304783 C122.01605702 30.14637576 103.38844882 30.16402648 84.76082611 30.17486 C76.11231213 30.18002318 67.4638072 30.1870663 58.81529903 30.19848728 C51.28002238 30.20843344 43.74475229 30.21490109 36.20946926 30.21713632 C32.21710965 30.21844355 28.22476881 30.22153013 24.2324152 30.22877789 C20.47899719 30.23553703 16.72560579 30.23766501 12.97218227 30.23615551 C11.59063924 30.23643189 10.20909536 30.23843764 8.82755756 30.2422533 C6.94929673 30.24718882 5.0710218 30.24544579 3.1927557 30.24330235 C2.13914632 30.24422414 1.08553694 30.24514593 0 30.24609566 C-2.35633183 30.12304783 -2.35633183 30.12304783 -3.35633183 29.12304783 C-3.45626714 27.06249473 -3.48714088 24.99852193 -3.48914433 22.93554783 C-3.49043339 21.68000095 -3.49172245 20.42445408 -3.49305058 19.13086033 C-3.49095585 18.47376072 -3.48886112 17.81666111 -3.48670292 17.13964939 C-3.48135416 15.13143448 -3.48664874 13.12344324 -3.49305058 11.11523533 C-3.49176151 9.85968845 -3.49047245 8.60414158 -3.48914433 7.31054783 C-3.48745243 5.56837986 -3.48745243 5.56837986 -3.48572636 3.79101658 C-3.31024848 0.17286143 -3.31024848 0.17286143 0 0 Z " fill="#3761CE" transform="translate(359.35633182525635,400.8769521713257)"/>
<path d="M0 0 C3.22215929 1.51802089 5.47004183 3.93282618 7.9140625 6.45703125 C8.42066406 6.96041016 8.92726563 7.46378906 9.44921875 7.98242188 C13.1640625 11.75233743 13.1640625 11.75233743 13.1640625 14.01953125 C5.2440625 17.97953125 -2.6759375 21.93953125 -10.8359375 26.01953125 C-17.8359375 20.01953125 -17.8359375 20.01953125 -18.8359375 16.01953125 C-18.19527344 15.45105469 -17.55460937 14.88257813 -16.89453125 14.296875 C-16.02957031 13.52472656 -15.16460937 12.75257813 -14.2734375 11.95703125 C-13.36207031 11.14363281 -12.45070313 10.33023438 -11.51171875 9.4921875 C-8.64399052 6.84215542 -5.99193617 4.06023326 -3.40625 1.13671875 C-1.8359375 0.01953125 -1.8359375 0.01953125 0 0 Z " fill="#F7FBFE" transform="translate(423.8359375,211.98046875)"/>
<path d="M0 0 C44.22 0 88.44 0 134 0 C133.67 0.66 133.34 1.32 133 2 C123.89603503 2.17807546 114.79186092 2.34357764 105.6875 2.5 C104.99658642 2.51187725 104.30567284 2.5237545 103.59382248 2.53599167 C79.91594969 2.93928643 56.24366575 3.08982574 32.5625 3.0625 C31.81525539 3.06164398 31.06801079 3.06078796 30.29812241 3.05990601 C21.19872236 3.04869163 12.09936475 3.0280352 3 3 C3 10.92 3 18.84 3 27 C2.34 27 1.68 27 1 27 C0.67 29.31 0.34 31.62 0 34 C-0.66 34 -1.32 34 -2 34 C-1.34 31.03 -0.68 28.06 0 25 C0 16.75 0 8.5 0 0 Z " fill="#3464DF" transform="translate(316,280)"/>
<path d="M0 0 C0.99 0.495 0.99 0.495 2 1 C3.42410576 1.09726195 4.85262892 1.1333706 6.28004456 1.13803101 C7.17851608 1.14348434 8.07698761 1.14893768 9.00268555 1.15455627 C9.99123535 1.1555986 10.97978516 1.15664093 11.99829102 1.15771484 C13.03751205 1.16279556 14.07673309 1.16787628 15.14744568 1.17311096 C17.41079928 1.18383247 19.6741636 1.19244563 21.93753242 1.19923019 C25.52334787 1.21100132 29.1090419 1.23045179 32.69480896 1.25234985 C42.89260801 1.31401083 53.0903964 1.36793981 63.28833008 1.40136719 C69.5217762 1.42235174 75.755004 1.45769173 81.98832512 1.50212479 C84.36165732 1.51626146 86.73502817 1.52500193 89.10840034 1.52817917 C92.43781357 1.53310599 95.76665157 1.55631251 99.09594727 1.58349609 C100.55751755 1.57898689 100.55751755 1.57898689 102.0486145 1.5743866 C110.48031747 1.67625081 117.66508386 3.78242322 125 8 C125.495 8.99 125.495 8.99 126 10 C125.01 10 124.02 10 123 10 C123 9.34 123 8.68 123 8 C115.0604475 5.70954474 107.79177838 4.55560998 99.54003906 4.56762695 C98.46539398 4.5574353 97.3907489 4.54724365 96.28353882 4.53674316 C92.77751279 4.50686324 89.27176107 4.49738559 85.765625 4.48828125 C83.31653961 4.47141603 80.86746278 4.45326334 78.418396 4.43388367 C72.00702591 4.38657791 65.59569054 4.35664305 59.1842041 4.33044434 C52.62794136 4.3005405 46.071798 4.25404407 39.515625 4.20898438 C26.6771485 4.12317238 13.83864293 4.05516465 1 4 C0.67 2.68 0.34 1.36 0 0 Z " fill="#1F4FCA" transform="translate(152,269)"/>
<path d="M0 0 C22.44 0 44.88 0 68 0 C68 0.33 68 0.66 68 1 C45.89 1 23.78 1 1 1 C1 8.92 1 16.84 1 25 C0.34 25 -0.32 25 -1 25 C-1.33 27.31 -1.66 29.62 -2 32 C-2.66 32 -3.32 32 -4 32 C-3.68160156 30.72898437 -3.36320312 29.45796875 -3.03515625 28.1484375 C-1.8840173 22.96983354 -1.59909885 17.91440638 -1.4375 12.625 C-1.37754097 10.86705222 -1.3139007 9.10922507 -1.24609375 7.3515625 C-1.22216553 6.58666504 -1.1982373 5.82176758 -1.17358398 5.03369141 C-1 3 -1 3 0 0 Z " fill="#0240DE" transform="translate(318,282)"/>
<path d="M0 0 C0.66 0.33 1.32 0.66 2 1 C1.67 1.99 1.34 2.98 1 4 C0.01 4 -0.98 4 -2 4 C-2 4.66 -2 5.32 -2 6 C-4.32231367 7.03762951 -6.64701213 8.03562486 -9 9 C-9.97839844 9.4031543 -9.97839844 9.4031543 -10.9765625 9.81445312 C-17.09990735 12.10210724 -22.57226071 12.36364428 -29.0625 12.1875 C-30.02349609 12.17396484 -30.98449219 12.16042969 -31.97460938 12.14648438 C-34.31701752 12.11152306 -36.65819156 12.06246104 -39 12 C-38.67 13.65 -38.34 15.3 -38 17 C-39.16959987 16.02433888 -40.33561177 15.044375 -41.5 14.0625 C-42.1496875 13.51722656 -42.799375 12.97195313 -43.46875 12.41015625 C-44.22671875 11.71212891 -44.22671875 11.71212891 -45 11 C-45 10.67 -45 10.34 -45 10 C-44.20416504 9.9906543 -43.40833008 9.98130859 -42.58837891 9.97167969 C-38.93332349 9.91753072 -35.27948716 9.83396924 -31.625 9.75 C-30.37332031 9.73582031 -29.12164062 9.72164063 -27.83203125 9.70703125 C-16.64168429 9.41409023 -8.78806656 6.87761731 0 0 Z " fill="#1448D1" transform="translate(301,331)"/>
<path d="M0 0 C1.65800798 4.42135462 0.66509036 6.67927714 0 12 C7.26 12 14.52 12 22 12 C22 10.02 22 8.04 22 6 C22.66 5.34 23.32 4.68 24 4 C23.67 7.3 23.34 10.6 23 14 C14.42 14 5.84 14 -3 14 C-1 3 -1 3 0 0 Z " fill="#B9CFFD" transform="translate(395,381)"/>
<path d="M0 0 C0.99 0.495 0.99 0.495 2 1 C4.17674783 1.15469367 6.3578348 1.25002106 8.5390625 1.31640625 C9.84101563 1.35830078 11.14296875 1.40019531 12.484375 1.44335938 C13.86458045 1.48317299 15.24478883 1.52288522 16.625 1.5625 C18.01303415 1.60569407 19.40105528 1.64930865 20.7890625 1.69335938 C24.19260256 1.79972 27.59621778 1.90174714 31 2 C31 1.34 31 0.68 31 0 C32.32 0.66 33.64 1.32 35 2 C34.67 2.66 34.34 3.32 34 4 C23.11 4 12.22 4 1 4 C0.67 2.68 0.34 1.36 0 0 Z " fill="#3963CC" transform="translate(312,427)"/>
<path d="M0 0 C4.31248609 -0.02886537 8.62494762 -0.04675255 12.9375 -0.0625 C14.16919922 -0.07087891 15.40089844 -0.07925781 16.66992188 -0.08789062 C17.83974609 -0.09111328 19.00957031 -0.09433594 20.21484375 -0.09765625 C21.84087524 -0.10551147 21.84087524 -0.10551147 23.49975586 -0.11352539 C26 0 26 0 27 1 C27.46740995 6.79588336 27.46740995 6.79588336 27 9 C25.68 9.99 24.36 10.98 23 12 C23.66 8.7 24.32 5.4 25 2 C16.75 2 8.5 2 0 2 C0 1.34 0 0.68 0 0 Z " fill="#2D5DDB" transform="translate(418,284)"/>
<path d="M0 0 C1.08828929 3.26486787 0.89901381 4.36990083 0.125 7.625 C-0.05804688 8.42164063 -0.24109375 9.21828125 -0.4296875 10.0390625 C-1 12 -1 12 -2 13 C-3.85369611 13.08737645 -5.71067541 13.10698153 -7.56640625 13.09765625 C-8.69111328 13.09443359 -9.81582031 13.09121094 -10.97460938 13.08789062 C-12.15861328 13.07951172 -13.34261719 13.07113281 -14.5625 13.0625 C-15.75037109 13.05798828 -16.93824219 13.05347656 -18.16210938 13.04882812 C-21.10812226 13.03699675 -24.05403681 13.02051287 -27 13 C-26.67 10.69 -26.34 8.38 -26 6 C-25.67 6 -25.34 6 -25 6 C-25 7.65 -25 9.3 -25 11 C-17.41 11 -9.82 11 -2 11 C-1.67 7.7 -1.34 4.4 -1 1 C-0.67 0.67 -0.34 0.34 0 0 Z " fill="#B9D0FD" transform="translate(387,382)"/>
<path d="M0 0 C2 4 2 4 2 6 C1.34 6 0.68 6 0 6 C0.020625 6.804375 0.04125 7.60875 0.0625 8.4375 C0 11 0 11 -1 12 C-2.92667507 12.08748207 -4.85651861 12.10697334 -6.78515625 12.09765625 C-7.95498047 12.09443359 -9.12480469 12.09121094 -10.33007812 12.08789062 C-12.17762695 12.07532227 -12.17762695 12.07532227 -14.0625 12.0625 C-15.91584961 12.05573242 -15.91584961 12.05573242 -17.80664062 12.04882812 C-20.87114117 12.03699608 -23.93554721 12.02051173 -27 12 C-27 11.34 -27 10.68 -27 10 C-14.625 9.505 -14.625 9.505 -2 9 C-1.34 6.03 -0.68 3.06 0 0 Z " fill="#1348D2" transform="translate(387,385)"/>
<path d="M0 0 C1.66674321 2.91824244 2.2432008 4.97594379 2.1953125 8.328125 C2.18886719 9.12734375 2.18242187 9.9265625 2.17578125 10.75 C2.15902344 11.575 2.14226562 12.4 2.125 13.25 C2.11146484 14.51070313 2.11146484 14.51070313 2.09765625 15.796875 C2.07415817 17.86470604 2.03828908 19.93238995 2 22 C1.34 22 0.68 22 0 22 C-0.33 24.31 -0.66 26.62 -1 29 C-1.66 29 -2.32 29 -3 29 C-2.68289063 27.73285156 -2.36578125 26.46570313 -2.0390625 25.16015625 C-0.87487333 19.92130498 -0.56344058 14.78842741 -0.375 9.4375 C-0.33632813 8.52419922 -0.29765625 7.61089844 -0.2578125 6.66992188 C-0.16469748 4.44680076 -0.07887834 2.22366387 0 0 Z " fill="#4770DE" transform="translate(317,285)"/>
<path d="M0 0 C14.19 0 28.38 0 43 0 C43 0.33 43 0.66 43 1 C29.8 1 16.6 1 3 1 C3.33 2.32 3.66 3.64 4 5 C2 3.625 2 3.625 0 2 C0 1.34 0 0.68 0 0 Z " fill="#EBF5FD" transform="translate(203,318)"/>
<path d="M0 0 C4.29129925 -0.14677671 8.58194224 -0.23456586 12.875 -0.3125 C14.07898438 -0.35439453 15.28296875 -0.39628906 16.5234375 -0.43945312 C24.3955428 -0.54641108 30.47761198 0.33924361 37 5 C37.495 5.99 37.495 5.99 38 7 C37.01 7 36.02 7 35 7 C35 6.34 35 5.68 35 5 C23.63920205 1.11534006 11.8814719 1.27332822 0 1 C0 0.67 0 0.34 0 0 Z " fill="#184BCE" transform="translate(240,272)"/>
<path d="M0 0 C0.99 0.33 1.98 0.66 3 1 C2.34 1 1.68 1 1 1 C0.73268066 1.59329102 0.46536133 2.18658203 0.18994141 2.79785156 C-1.01584993 5.02933245 -2.2358095 6.4664799 -4.0390625 8.234375 C-4.90917969 9.09482422 -4.90917969 9.09482422 -5.796875 9.97265625 C-6.40015625 10.55917969 -7.0034375 11.14570313 -7.625 11.75 C-8.23601562 12.35199219 -8.84703125 12.95398438 -9.4765625 13.57421875 C-10.97988624 15.05405305 -12.48934856 16.52764676 -14 18 C-14.33 17.34 -14.66 16.68 -15 16 C-10.23991693 10.4069024 -5.25404324 5.13122145 0 0 Z " fill="#E2EFFF" transform="translate(422,212)"/>
<path d="M0 0 C2 1.375 2 1.375 4 3 C4 3.66 4 4.32 4 5 C-5.57 5 -15.14 5 -25 5 C-25.33 4.34 -25.66 3.68 -26 3 C-13.13 3.495 -13.13 3.495 0 4 C0 2.68 0 1.36 0 0 Z " fill="#E3EEFE" transform="translate(339,424)"/>
<path d="M0 0 C0.66 0.33 1.32 0.66 2 1 C1.67 1.99 1.34 2.98 1 4 C0.01 4 -0.98 4 -2 4 C-2 4.66 -2 5.32 -2 6 C-6.62197306 8.21854707 -9.76824163 9.38281159 -15 9 C-12 7 -12 7 -8.625 5.625 C-5.21302892 4.09549572 -2.79153801 2.45316977 0 0 Z " fill="#2D5DDB" transform="translate(301,331)"/>
<path d="M0 0 C0.33 0 0.66 0 1 0 C1.05441656 1.89551022 1.09298035 3.7914792 1.125 5.6875 C1.14820313 6.74324219 1.17140625 7.79898437 1.1953125 8.88671875 C0.99858729 12.02251859 0.33057654 14.17645373 -1 17 C-1.33 17 -1.66 17 -2 17 C-2.04241723 14.66705225 -2.04092937 12.33297433 -2 10 C-1.67 9.67 -1.34 9.34 -1 9 C-0.76807135 7.48530552 -0.58784762 5.96245438 -0.4375 4.4375 C-0.35371094 3.61121094 -0.26992188 2.78492188 -0.18359375 1.93359375 C-0.12300781 1.29550781 -0.06242187 0.65742188 0 0 Z " fill="#2655D1" transform="translate(285,287)"/>
<path d="M0 0 C0.66 0 1.32 0 2 0 C2.390625 5.95703125 2.390625 5.95703125 2 8 C0.68 8.99 -0.64 9.98 -2 11 C-1.34 7.37 -0.68 3.74 0 0 Z " fill="#2154D9" transform="translate(443,285)"/>
<path d="M0 0 C0.33 0 0.66 0 1 0 C0.88490339 1.41750563 0.75746342 2.83401169 0.625 4.25 C0.55539062 5.03890625 0.48578125 5.8278125 0.4140625 6.640625 C-0.01507113 9.085877 -0.78600638 10.84836903 -2 13 C-2.05416188 11.39620659 -2.09286638 9.79188594 -2.125 8.1875 C-2.14820313 7.29417969 -2.17140625 6.40085937 -2.1953125 5.48046875 C-2 3 -2 3 0 0 Z " fill="#2859D9" transform="translate(365,367)"/>
</svg>
